# xmcd
#
# Track frame offsets:
#	150
#	10062
#	21300
#	34585
#	46750
#	60055
#	73155
#	85495
#	95410
#	109802
#	123170
#	136970
#	152652
#	166275
#	177877
#	195605
#	206692
#	224832
#	235957
#	250300
#	265815
#
# Disc length: 3737
#
# Revision: 3
# Processed by: cddbd v1.5.1PL0 Copyright (c) Steve Scherf et al.
# Submitted via: CDValet v3.31 - Copyright (c) 1997 Greg Leichner
# Normalized: r1:TDELIM( - ),TSWAP
#
DISCID=220e9715
DTITLE=Various Artist - Country Ladies Vol. 3
DYEAR=1900
DGENRE=
TTITLE0=Lynn Anderson - Snowbird
TTITLE1=Dolly Parton - Dumb blonde
TTITLE2=Tanya Tucker - Delta dawn
TTITLE3=Dolly Parton - Fuel to the flame
TTITLE4=Tammy Wynette - D.I.V.O.R.C.E.
TTITLE5=Lynn Anderson - Honey come back
TTITLE6=Tanya Tucker - You are so beautiful
TTITLE7=Dolly Parton - Your ole handy man
TTITLE8=Lynn Anderson - A little bit more
TTITLE9=Tanya Tucker - Let me be there
TTITLE10=Janie Fricke - But love me
TTITLE11=Lacy J. Dalton - Takin' it easy
TTITLE12=Lynn Anderson - Angel in your arms
TTITLE13=Lacy J. Dalton - Hard times
TTITLE14=Tanya Tucker - The best of my love
TTITLE15=Janie Fricke - Don't worry 'bout me baby
TTITLE16=Rosanne Cash - Runaway train
TTITLE17=Lacy J. Dalton - You can't take the Texas out of me
TTITLE18=Charly McClain - Radio heart
TTITLE19=Rosanne Cash - Never be you
TTITLE20=Lacy J. Dalton - Blue-eyed blues
EXTD=
EXTT0=
EXTT1=
EXTT2=
EXTT3=
EXTT4=
EXTT5=
EXTT6=
EXTT7=
EXTT8=
EXTT9=
EXTT10=
EXTT11=
EXTT12=
EXTT13=
EXTT14=
EXTT15=
EXTT16=
EXTT17=
EXTT18=
EXTT19=
EXTT20=
PLAYORDER=
